<svg width="55" height="55" viewBox="0 0 55 55" fill="none" xmlns="http://www.w3.org/2000/svg">
<path d="M54.3659 38.031V44.7741H16.9101V54.6471H0.325755C0.235424 54.2809 0.196361 38.7902 0.291576 38.031H54.3659Z" fill="white"/>
<path d="M54.3537 17.1497H37.7718V0.59464C38.1209 0.492101 53.8166 0.470129 54.3537 0.57755V17.1497ZM48.5872 6.30017H43.5286V11.4002H48.5872V6.30017Z" fill="white"/>
<path d="M37.7938 19.2713H54.2951C54.4001 19.6277 54.4367 35.1696 54.3342 35.8728H37.8328C37.7278 35.531 37.6912 20.0379 37.7938 19.2713ZM48.5749 30.1404C48.6726 29.4202 48.6384 25.3894 48.5408 25.0501H43.5432C43.448 25.741 43.4798 29.7815 43.5847 30.1404H48.5749Z" fill="white"/>
<path d="M19.0171 17.1447V0.545731H35.5526C35.6503 0.904615 35.6844 8.60232 35.5917 9.34694H29.9032V6.366C29.5077 6.24394 25.3476 6.22196 24.7763 6.32938V11.4221H35.5917V17.1447H19.0171Z" fill="white"/>
<path d="M11.1143 25.0402H6.03619V35.8068C5.65533 35.9362 0.936122 35.9679 0.284271 35.858V19.3372C0.611418 19.2346 16.229 19.2029 16.8686 19.3127V35.8214C16.5293 35.9337 8.81205 35.9704 8.12602 35.858V30.1745H11.1143V25.0402Z" fill="white"/>
<path d="M0.284424 17.1472V0.540909H16.8688V6.2562H6.05099V11.3831H11.134C11.1755 10.4066 11.134 9.43001 11.1584 8.45345C11.5417 8.33871 16.2121 8.30941 16.8224 8.40707C16.9249 8.77328 16.942 16.6272 16.837 17.1399L0.284424 17.1472Z" fill="white"/>
<path d="M27.3812 30.1697H29.7762C29.8959 29.7766 29.9227 25.6506 29.8202 25.0427H24.7982C24.7785 25.1681 24.7654 25.2944 24.7592 25.4211C24.7592 26.7737 24.7592 28.1238 24.7592 29.4739C24.7636 29.7169 24.8363 29.9538 24.9691 30.1574C25.9701 31.8892 26.9686 33.6226 27.9647 35.3576C28.0526 35.5065 28.1332 35.6603 28.2089 35.8215C27.8109 35.9265 19.7421 35.9557 19.0659 35.8679C18.9731 35.5139 18.9487 19.8865 19.0439 19.2664H35.5941V35.8483C35.4749 35.8723 35.3541 35.8878 35.2328 35.8947C33.8167 35.8947 32.4007 35.8947 30.9847 35.8947C30.8816 35.9067 30.7773 35.887 30.6857 35.8381C30.5941 35.7892 30.5195 35.7136 30.472 35.6213C29.4808 33.883 28.4774 32.1521 27.4789 30.4187C27.4413 30.3377 27.4087 30.2546 27.3812 30.1697Z" fill="white"/>
</svg>
