<svg width="32" height="29" viewBox="0 0 32 29" fill="none" xmlns="http://www.w3.org/2000/svg">
<path d="M8.07723 16.984H6.72123C6.06456 16.984 5.53223 17.5163 5.53223 18.173V26.671C5.53223 27.3277 6.06456 27.86 6.72123 27.86H8.07723C8.73389 27.86 9.26623 27.3277 9.26623 26.671V18.173C9.26623 17.5163 8.73389 16.984 8.07723 16.984Z" stroke="#D4A44D" stroke-width="1.607" stroke-linecap="round" stroke-linejoin="round"/>
<path d="M5.532 27.314C3.03 27.314 1 25.122 1 22.422C1 19.722 3.03 17.529 5.532 17.529M27.116 7.593L26.211 8.263L25.557 8.754C25.087 8.994 24.516 8.854 24.207 8.424C23.1975 7.25525 21.9484 6.31741 20.5444 5.67416C19.1403 5.0309 17.6144 4.6973 16.07 4.696C12.95 4.696 9.983 6.056 7.932 8.425C7.623 8.854 7.052 8.993 6.582 8.755L5.886 8.215L5.018 7.593C4.632 7.323 4.696 6.556 5.211 5.973C6.55846 4.41378 8.22559 3.16268 10.0992 2.30462C11.9729 1.44656 14.0092 1.00162 16.07 1C20.232 1 24.19 2.813 26.929 5.973C27.438 6.556 27.502 7.323 27.116 7.593V7.593Z" stroke="#D4A44D" stroke-width="1.607" stroke-linecap="round" stroke-linejoin="round"/>
<path d="M23.9208 27.86H25.2768C25.9335 27.86 26.4658 27.3277 26.4658 26.671V18.173C26.4658 17.5163 25.9335 16.984 25.2768 16.984H23.9208C23.2642 16.984 22.7318 17.5163 22.7318 18.173V26.671C22.7318 27.3277 23.2642 27.86 23.9208 27.86Z" stroke="#D4A44D" stroke-width="1.607" stroke-linecap="round" stroke-linejoin="round"/>
<path d="M29.7463 18.749C29.6381 14.9797 28.4072 11.3285 26.2113 8.26299M26.4683 27.314C28.9703 27.314 31.0003 25.122 31.0003 22.422C31.0003 19.722 28.9703 17.529 26.4683 17.529V27.314ZM2.28027 18.955C2.33264 15.0936 3.5914 11.3453 5.88027 8.23499L2.28027 18.955Z" stroke="#D4A44D" stroke-width="1.607" stroke-linecap="round" stroke-linejoin="round"/>
</svg>
