<svg width="13" height="13" viewBox="0 0 13 13" fill="none" xmlns="http://www.w3.org/2000/svg">
<path d="M6.09375 0.366455C6.36543 0.366455 6.63457 0.366455 6.90625 0.366455C6.93926 0.373597 6.97227 0.380739 7.00527 0.3855C7.37598 0.442635 7.75176 0.475964 8.11484 0.559286C10.565 1.12826 12.4846 3.08037 12.901 5.41101C12.9416 5.63241 12.967 5.85619 13 6.07997C13 6.33469 13 6.58704 13 6.84177C12.9924 6.8751 12.9848 6.91081 12.9771 6.94414C12.9162 7.28695 12.8807 7.6369 12.7918 7.97257C12.1824 10.2723 10.1004 12.0744 7.61973 12.4601C7.38359 12.4981 7.14492 12.522 6.90625 12.5529C6.63457 12.5529 6.36543 12.5529 6.09375 12.5529C6.05566 12.5458 6.02012 12.5386 5.98203 12.5315C5.5834 12.4672 5.17715 12.4315 4.78613 12.3339C2.36895 11.7292 0.510351 9.81042 0.0990233 7.51073C0.0583983 7.28933 0.0330078 7.06555 0 6.84177C0 6.58704 0 6.33469 0 6.07997C0.00761719 6.04188 0.0152342 6.00379 0.0228514 5.9657C0.0990233 5.57289 0.129492 5.16581 0.256445 4.78967C1.06133 2.40904 2.78027 0.961613 5.39043 0.4593C5.62402 0.414068 5.86016 0.395023 6.09375 0.366455ZM1.61992 6.38707C1.6707 6.38231 1.69863 6.37993 1.72656 6.37755C2.47051 6.27042 3.21445 6.16091 3.9584 6.05854C4.06504 6.04426 4.11328 6.01093 4.14121 5.90856C4.39766 4.90394 5.37773 4.18022 6.47715 4.17546C7.53594 4.1707 8.47031 4.80157 8.80293 5.74906C8.83086 5.83238 8.86387 5.86809 8.96289 5.87523C9.46055 5.90618 9.9582 5.94665 10.4559 5.98236C10.7504 6.00379 11.0449 6.02283 11.3598 6.04426C11.149 4.48018 10.3695 3.26368 8.91465 2.50188C7.16523 1.58534 5.40059 1.65438 3.74004 2.70661C2.36895 3.57554 1.70117 4.8349 1.61992 6.38707ZM11.2176 7.56548C11.1211 7.55834 11.0322 7.55358 10.9459 7.54644C10.2426 7.49406 9.53672 7.44407 8.8334 7.3917C8.75469 7.38455 8.71914 7.40836 8.67852 7.47502C8.58203 7.63214 8.47793 7.78926 8.35859 7.92972C8.08438 8.24872 7.72637 8.46536 7.32012 8.6082C7.32012 9.39143 7.32012 10.1723 7.32012 10.9531C9.07461 10.7198 10.7631 9.37238 11.2176 7.56548ZM1.87383 7.89877C2.20137 8.78913 2.7498 9.51522 3.53438 10.0818C4.16914 10.5413 4.88262 10.8341 5.67734 10.9603C5.67988 10.9341 5.68496 10.9222 5.68496 10.9103C5.68496 10.1675 5.68496 9.42713 5.6875 8.68438C5.6875 8.61058 5.64941 8.59153 5.59102 8.57011C5.09336 8.37966 4.70234 8.06779 4.42559 7.6369C4.3748 7.55834 4.32656 7.5393 4.23516 7.55358C3.4582 7.67023 2.67617 7.78212 1.87383 7.89877ZM6.49746 5.69907C6.04805 5.70145 5.6875 6.04188 5.6875 6.46563C5.6875 6.88462 6.0582 7.22267 6.51016 7.22029C6.95195 7.21791 7.31504 6.87272 7.3125 6.45849C7.30996 6.03712 6.94434 5.69669 6.49746 5.69907Z" fill="white"/>
</svg>
