<svg width="55" height="55" fill="none" xmlns="http://www.w3.org/2000/svg"><path d="M54.366 38.031v6.743H16.91v9.873H.326c-.09-.366-.13-15.857-.034-16.616h54.074zm-.012-20.881H37.772V.595C38.12.492 53.817.47 54.354.578V17.15zM48.587 6.3H43.53v5.1h5.058V6.3zM37.794 19.271h16.501c.105.357.142 15.899.04 16.602H37.832c-.105-.342-.142-15.835-.04-16.602zm10.78 10.87c.099-.72.064-4.752-.033-5.09h-4.998c-.095.69-.063 4.73.042 5.09h4.99zM19.017 17.145V.545h16.536c.097.36.131 8.057.039 8.802h-5.689V6.366c-.395-.122-4.555-.144-5.127-.037v5.093h10.816v5.723H19.017zm-7.903 7.895H6.036v10.767c-.38.13-5.1.16-5.752.051v-16.52c.327-.103 15.945-.135 16.585-.025V35.82c-.34.113-8.057.15-8.743.037v-5.683h2.988V25.04zM.284 17.147V.541H16.87v5.715H6.05v5.127h5.083c.041-.976 0-1.953.024-2.93.384-.114 5.054-.144 5.664-.046.103.366.12 8.22.015 8.733l-16.553.007zM27.381 30.17h2.395c.12-.393.147-4.52.044-5.127h-5.022a3.56 3.56 0 0 0-.039.378v4.053c.005.243.077.48.21.683 1.001 1.732 2 3.466 2.996 5.2.088.15.168.303.244.465-.398.104-8.467.134-9.143.046-.093-.354-.117-15.982-.022-16.602h16.55v16.582c-.12.024-.24.04-.361.047h-4.248a.51.51 0 0 1-.513-.274c-.991-1.738-1.995-3.469-2.993-5.202a2.205 2.205 0 0 1-.098-.25z" fill="#fff"/></svg>