<svg width="32" height="29" fill="none" xmlns="http://www.w3.org/2000/svg"><path d="M8.077 16.984H6.721a1.19 1.19 0 0 0-1.189 1.189v8.498a1.19 1.19 0 0 0 1.19 1.189h1.355a1.19 1.19 0 0 0 1.19-1.189v-8.498a1.19 1.19 0 0 0-1.19-1.189zm-2.545 10.33C3.03 27.314 1 25.122 1 22.422s2.03-4.893 4.532-4.893m21.584-9.936l-.905.67-.654.491c-.47.24-1.041.1-1.35-.33a10.764 10.764 0 0 0-8.137-3.728c-3.12 0-6.087 1.36-8.138 3.729-.309.429-.88.568-1.35.33l-.696-.54-.868-.622c-.386-.27-.322-1.037.193-1.62A14.367 14.367 0 0 1 16.07 1a14.37 14.37 0 0 1 10.859 4.973c.509.583.573 1.35.187 1.62v0zM23.92 27.86h1.357a1.19 1.19 0 0 0 1.189-1.189v-8.498a1.19 1.19 0 0 0-1.19-1.189h-1.355a1.19 1.19 0 0 0-1.19 1.189v8.498a1.19 1.19 0 0 0 1.19 1.189z" stroke="#D4A44D" stroke-width="1.607" stroke-linecap="round" stroke-linejoin="round"/><path d="M29.746 18.749a18.94 18.94 0 0 0-3.535-10.486m.257 19.051c2.502 0 4.532-2.192 4.532-4.892s-2.03-4.893-4.532-4.893v9.785zM2.28 18.955a18.51 18.51 0 0 1 3.6-10.72l-3.6 10.72z" stroke="#D4A44D" stroke-width="1.607" stroke-linecap="round" stroke-linejoin="round"/></svg>