<svg width="13" height="13" fill="none" xmlns="http://www.w3.org/2000/svg"><path d="M6.094.366h.812c.033.008.066.015.1.02.37.057.746.09 1.109.173 2.45.57 4.37 2.521 4.786 4.852.04.221.066.445.099.669v.762l-.023.102c-.06.343-.096.693-.185 1.029-.61 2.3-2.692 4.101-5.172 4.487-.236.038-.475.062-.714.093h-.812l-.112-.022c-.399-.064-.805-.1-1.196-.197C2.37 11.729.51 9.81.1 7.51c-.041-.221-.067-.444-.1-.67v-.76l.023-.114c.076-.393.106-.8.233-1.176C1.061 2.409 2.78.962 5.39.46c.234-.046.47-.065.704-.094zM1.62 6.387l.107-.01c.744-.107 1.487-.216 2.231-.318.107-.015.155-.048.183-.15.257-1.005 1.237-1.729 2.336-1.734 1.059-.004 1.993.627 2.326 1.574.028.083.06.12.16.126.498.031.995.072 1.493.107.294.022.589.04.904.062-.211-1.564-.99-2.78-2.445-3.542-1.75-.917-3.514-.848-5.175.205-1.371.869-2.039 2.128-2.12 3.68zm9.598 1.178c-.097-.007-.186-.011-.272-.019l-2.113-.154c-.078-.007-.114.016-.154.083a3.65 3.65 0 0 1-.32.455c-.275.319-.633.535-1.039.678v2.345c1.755-.233 3.443-1.58 3.898-3.388zM1.874 7.9c.327.89.876 1.616 1.66 2.183a4.91 4.91 0 0 0 2.143.878c.003-.026.008-.038.008-.05 0-.742 0-1.483.003-2.226 0-.073-.039-.092-.097-.114a2.342 2.342 0 0 1-1.165-.933c-.051-.079-.1-.098-.19-.083-.778.116-1.56.228-2.362.345zm4.623-2.2c-.449.002-.81.343-.81.767 0 .419.371.757.823.754.442-.002.805-.347.803-.762-.003-.42-.369-.761-.816-.759z" fill="#fff"/></svg>