<svg width="44" height="57" fill="none" xmlns="http://www.w3.org/2000/svg"><path d="M43.577 4.918a54.167 54.167 0 0 0-6.84-2.222 64.038 64.038 0 0 0-9.767-1.572C25.356.98 23.9.933 22.277.914h-.138c-1.623.019-3.08.068-4.694.21a64.044 64.044 0 0 0-9.767 1.572 54.175 54.175 0 0 0-6.84 2.222c-.092.037-.137.053-.137.053s.272 16.649.482 24.898a22.827 22.827 0 0 0 1.31 7.123A34.253 34.253 0 0 0 6.22 44.38a29.62 29.62 0 0 0 5.774 6.326c.87.729 1.786 1.4 2.744 2.008a35.1 35.1 0 0 0 4.684 2.37c.536.228 1.002.441 1.427.585.442.17.894.31 1.354.42.46-.11.912-.25 1.354-.42.425-.144.891-.36 1.427-.585a35 35 0 0 0 4.684-2.37 25.87 25.87 0 0 0 2.744-2.008 29.61 29.61 0 0 0 5.773-6.326 34.235 34.235 0 0 0 3.73-7.388 22.84 22.84 0 0 0 1.31-7.123c.21-8.25.482-24.89.482-24.89a1.462 1.462 0 0 0-.131-.06z" fill="url(#paint0_linear)"/><path d="M21.692 47.286H9.483a29.561 29.561 0 0 0 2.911 2.771 24.852 24.852 0 0 0 2.638 1.948 33.542 33.542 0 0 0 4.504 2.298c.516.221.964.43 1.373.568.294.1.56.195.785.27v-7.855h-.002zm0-9.115a8.958 8.958 0 0 1-5.246-2.296H2.966c.09.292.185.585.287.877a31.707 31.707 0 0 0 1.84 4.2H21.69l.001-2.78zm20.856-13.954h-11.9v.921l-.006 4.285h11.792c.035-1.524.075-3.31.114-5.206zm.208-10.935H22.421v5.046h20.242c.033-1.75.064-3.468.092-5.046h.001z" fill="#B12B28"/><path fill-rule="evenodd" clip-rule="evenodd" d="M42.55 34.889c-.278 1.059-.646 2.095-.646 2.095a34.235 34.235 0 0 1-3.727 7.387 29.608 29.608 0 0 1-5.773 6.326 25.86 25.86 0 0 1-2.744 2.007 34.951 34.951 0 0 1-4.684 2.37c-.536.229-1.006.442-1.427.586-.442.17-.894.31-1.354.419-.46-.11-.913-.25-1.354-.42-.426-.143-.891-.358-1.427-.585a34.927 34.927 0 0 1-4.685-2.37 25.836 25.836 0 0 1-2.743-2.007 30.362 30.362 0 0 1-4.944-5.15l.058.084a30.01 30.01 0 0 0 5.013 5.348 26.423 26.423 0 0 0 2.788 2.007 35.116 35.116 0 0 0 4.512 2.37c.533.23 1.006.43 1.427.585.439.18.892.32 1.354.422.46-.11.912-.251 1.354-.422.425-.144.891-.359 1.427-.585a34.98 34.98 0 0 0 4.684-2.37 25.895 25.895 0 0 0 2.744-2.007 29.617 29.617 0 0 0 5.774-6.33 34.45 34.45 0 0 0 3.72-7.427c.262-.758.478-1.531.646-2.315l.008-.018zm.363-28.959a1.411 1.411 0 0 0-.133-.058l-.036-.016a51.826 51.826 0 0 0-6.587-2.16 61.154 61.154 0 0 0-9.399-1.53c-1.554-.138-2.957-.185-4.52-.205h-.132c-1.563.02-2.966.072-4.52.21a61.179 61.179 0 0 0-9.401 1.534A51.118 51.118 0 0 0 1.649 5.86l-.03.015a.359.359 0 0 0-.094.044l-.005-.316.13-.054a51.097 51.097 0 0 1 6.535-2.155 61.175 61.175 0 0 1 9.401-1.53 57.713 57.713 0 0 1 4.52-.204h.128c1.562.02 2.965.067 4.519.204 3.169.265 6.312.775 9.402 1.528a51.8 51.8 0 0 1 6.586 2.159l.037.016c.044.017.089.036.132.058l.003.305zM21.676 7.92a55.33 55.33 0 0 0-4.062.195c-3.17.262-6.313.774-9.403 1.53A53.588 53.588 0 0 0 1.638 11.8a.102.102 0 0 0-.018.01l-.005-.296.032-.015a51.904 51.904 0 0 1 6.58-2.165 61.232 61.232 0 0 1 9.388-1.523c1.4-.124 2.681-.171 4.062-.193v.301z" fill="#613E18"/><path fill-rule="evenodd" clip-rule="evenodd" d="M36.872 39.224v.11c0 .08-.013.102-.072.12a2.782 2.782 0 0 0-1.364.754l-.027-.025c-.007-.006-.008-.032-.01-.046-.008-.072.04-.125.125-.203.363-.33.806-.557 1.286-.66.04-.004.06-.02.062-.05zm-2.351-1.364a2.684 2.684 0 0 0-1.026.718 1.73 1.73 0 0 0-.441.738c0 .011-.027.072.015.094a1.99 1.99 0 0 1 .413-.616 2.604 2.604 0 0 1 1.005-.718.096.096 0 0 0 .06-.08l.021-.185a.049.049 0 0 1-.047.048zm-2.487-.565a3.426 3.426 0 0 0-1.262 1.338 2.09 2.09 0 0 0-.233.933c0 .037 0 .072.03.084a.047.047 0 0 0 .023.008c.016-.297.086-.59.207-.862.273-.54.71-.982 1.248-1.26a.86.86 0 0 0 .062-.37.175.175 0 0 1-.075.129zm-3.28.687a2.038 2.038 0 0 0-.504.604 2.568 2.568 0 0 0-.348 1.646 2.96 2.96 0 0 1 .382-1.42c.11-.225.264-.426.453-.59a.617.617 0 0 0 .057-.312.081.081 0 0 1-.04.071zm-5.218 4.321a.035.035 0 0 0 .023-.027.035.035 0 0 0-.013-.033 1.031 1.031 0 0 1-.381-.688.897.897 0 0 0 .287.798.717.717 0 0 1 .084-.05zm10.9-10.512a2.104 2.104 0 0 0-.844.672 2.038 2.038 0 0 0-.489.872c-.007.033-.014.076.01.097.112-.282.275-.54.48-.761a2.03 2.03 0 0 1 .836-.656c.08-.04.092-.129.091-.314-.006.04-.034.07-.083.089zm3.252.54a2.53 2.53 0 0 0-1.131.494c-.291.21-.531.483-.702.798-.005.013-.056.083.03.11.173-.263.392-.492.647-.677a2.56 2.56 0 0 1 1.128-.516c.043-.008.065-.062.067-.087v-.175c.005.025-.006.053-.038.053h-.001zm2.433 1.598c0 .035-.014.058-.048.054a2.18 2.18 0 0 0-1.266.456 1.93 1.93 0 0 0-.267.225c-.066.046-.052.086-.045.093a.706.706 0 0 0 .072.064c.063-.057.13-.11.2-.158a2.28 2.28 0 0 1 1.298-.493c.035-.006.06-.13.057-.241h-.001zm-14.41 4.142v.04a.567.567 0 0 1-.436.514.78.78 0 0 1-.852-.163.723.723 0 0 1-.995.123.78.78 0 0 1-.218-.239c-.037-.101-.06-.197-.072-.23h-.017c-.24.026-.479.043-.718.05v.215c.245-.006.49-.023.732-.05.015.077.037.153.067.226a.83.83 0 0 0 .484.354.755.755 0 0 0 .721-.242.857.857 0 0 0 .892.164.581.581 0 0 0 .401-.503c.01-.086.013-.173.012-.26l-.001.001zm.616 6.22a1.039 1.039 0 0 1-1.03 0 1.293 1.293 0 0 1-.342-.345c-.018-.033-.05-.052-.058-.046a1.055 1.055 0 0 1-.81.266 1.111 1.111 0 0 1-.8-.455 1.17 1.17 0 0 1-.207-.663l-.011.024c-.02.297.062.59.233.833a1.013 1.013 0 0 0 .739.468 1.125 1.125 0 0 0 .835-.292c.008-.007.04.012.058.046.096.133.21.252.34.353a1.015 1.015 0 0 0 1.015.007 1.222 1.222 0 0 0 .524-.962.95.95 0 0 1-.486.765zm7.5 1.54a3.172 3.172 0 0 0-.677.327 2.07 2.07 0 0 0-.691.904.098.098 0 0 0 .016.035l.03.02c.145-.313.364-.584.64-.79a3.18 3.18 0 0 1 .678-.33c.023-.011.044-.133.041-.204-.002.017-.013.028-.036.035l-.001.003zm-1.712-1.006a.034.034 0 0 1-.024.03 2.397 2.397 0 0 0-1.6 1.297c-.004.01-.006.062.006.064l.05.016a2.572 2.572 0 0 1 1.525-1.188c.034-.008.042-.129.044-.224l-.001.005zm-2.977-.24c-.293.274-.543.59-.743.94a1.476 1.476 0 0 0-.156.902.053.053 0 0 0 .03.045 1.39 1.39 0 0 1 .166-.75c.191-.331.425-.636.696-.907a.936.936 0 0 0 .036-.287.093.093 0 0 1-.028.05v.008zm-2.595 1.036a1.397 1.397 0 0 0-.354 1.259 1.366 1.366 0 0 1 .376-1.066.992.992 0 0 0 .013-.245.087.087 0 0 1-.035.052zm-1.319 2.567l.067-.052c.04-.016-.027-.054-.033-.064a2.12 2.12 0 0 1-.229-.6 2.657 2.657 0 0 1-.071-.543c.002.232.026.464.071.691.046.196.111.386.195.568zm1.293 2.503a.747.747 0 0 1-.744.149 1.221 1.221 0 0 1-.605-.46c-.02-.025-.066.007-.072.015a1.392 1.392 0 0 1-.819.718.85.85 0 0 1-.667-.203.736.736 0 0 1-.251-.563c0 .59.072.627.253.756a.907.907 0 0 0 .694.202 1.391 1.391 0 0 0 .819-.718c0-.008.05-.04.072-.016.148.214.36.375.605.46a.744.744 0 0 0 .744-.15 1.047 1.047 0 0 0 .287-.79.902.902 0 0 1-.314.6h-.002zm-2.77-1.118l.108-.09c.026-.018 0-.038-.012-.045a.867.867 0 0 1-.584-.739.98.98 0 0 0 .49.874h-.002zM2.781 15.82a.073.073 0 0 0 .034-.046.072.072 0 0 0-.01-.056.923.923 0 0 1-.1-.38v-.003.014c.009.16.035.318.078.472h-.002zm.647 11.401l.015-.012c.028-.026.052-.076.03-.107a2.012 2.012 0 0 1-.228-.35.666.666 0 0 1-.05-.264c0 .162.02.324.063.48.043.093.1.179.17.254zm3.016.93v.017a.681.681 0 0 1-.397.583.98.98 0 0 1-.813.143 1.17 1.17 0 0 1-.503-.333c-.055-.06-.114 0-.177.041-.17.108-.347.201-.531.28a.81.81 0 0 1-1.02-.265.934.934 0 0 1-.184-.529c-.012.255.05.507.18.727a.842.842 0 0 0 1.038.287 3.69 3.69 0 0 0 .532-.279c.062-.042.105-.119.16-.058.143.16.324.28.525.353a.947.947 0 0 0 .814-.144.671.671 0 0 0 .379-.77l-.003-.054zm-.812-5.623a.804.804 0 0 1-.397.673.853.853 0 0 1-1.194-.287c-.013-.035-.124-.057-.167-.02-.25.17-.548.257-.85.249a.774.774 0 0 1-.682-.484.707.707 0 0 1-.066-.261.914.914 0 0 0 .056.414.812.812 0 0 0 .675.531c.31.006.616-.084.874-.257a.099.099 0 0 1 .137.023.894.894 0 0 0 1.208.367c.299-.2.42-.385.407-.946v-.002zm-2.682-1.07a.441.441 0 0 1 .044-.028c.03-.016.018-.061 0-.101a.748.748 0 0 1-.216-.508c-.006.218.052.433.166.619l.006.017zm4.298 1.42c-.3.318-.512.708-.617 1.133a2.713 2.713 0 0 0-.008.926 2.64 2.64 0 0 1 .036-.704c.098-.418.302-.803.593-1.12.01-.013.011-.04.011-.093v-.188a.085.085 0 0 1-.013.046h-.002zm2.701-.89a2.312 2.312 0 0 0-1.115 2.37 2.276 2.276 0 0 1 1.122-2.131c.035-.027.028-.188.028-.297a.078.078 0 0 1-.031.06l-.004-.001zm1.365 1.642c-.009.024.056.072.081.068l.072-.007a4.4 4.4 0 0 1 1.542-1.939c.026-.018.024-.117.026-.16v-.143a.088.088 0 0 1-.038.072 4.38 4.38 0 0 0-1.68 2.11h-.003zm-3.887-6.11a1.52 1.52 0 0 0-.562.555 2.139 2.139 0 0 0-.336 1.555c.005.023.008.072.022.087a2.267 2.267 0 0 1 .368-1.372c.115-.223.29-.41.507-.536a.03.03 0 0 0 .016-.026v-.287a.028.028 0 0 1-.01.025h-.005zm2.873-.76a2.38 2.38 0 0 0-.797.68 2.986 2.986 0 0 0-.542 1.199.163.163 0 0 0 .085.14 3.21 3.21 0 0 1 .53-1.074 2.25 2.25 0 0 1 .739-.703c.065-.032.076-.095.076-.169v-.163c.005.04-.04.069-.085.091H10.3zm3.417-.078a2.585 2.585 0 0 0-1.205.407 1.695 1.695 0 0 0-.79 1.11.131.131 0 0 0 .09.132c.141-.4.412-.743.769-.972.34-.244.737-.396 1.152-.443.06-.006.053-.084.053-.143v-.179a.087.087 0 0 1-.062.089l-.007-.001zm1.374 1.618l.11-.072a3.671 3.671 0 0 1 1.339-.533c.05-.005.072-.03.072-.137v-.126c0 .018-.018.027-.043.03a3.928 3.928 0 0 0-1.644.717c-.069.066-.133.11-.034.12l.2.001zm-6.922-7.044c-.443.3-.84.662-1.177 1.077-.275.453-.41.978-.385 1.508 0 .017.028.025.053.027.029-.45.167-.886.403-1.27.332-.412.71-.784 1.129-1.11.023-.108.03-.22.02-.33a.144.144 0 0 1-.043.098zm3.755-.862a.047.047 0 0 1-.013.034 7.95 7.95 0 0 0-1.134.891 2.33 2.33 0 0 0-.61 1.375c0 .016.029.042.044.04l.038-.008a2.78 2.78 0 0 1 .582-1.122c.327-.33.685-.628 1.069-.89.03-.027.024-.111.024-.144v-.176zm3.847-.216a4.185 4.185 0 0 0-1.563.87 2.335 2.335 0 0 0-.603 1.206c0 .022.041.03.067.032a2.43 2.43 0 0 1 .55-.96 4.571 4.571 0 0 1 1.563-.887c.043-.017.058-.072.06-.119v-.234a.122.122 0 0 1-.075.087v.005zm3.25 1.54a8.2 8.2 0 0 0-1.384.13 1.944 1.944 0 0 0-.77.502.062.062 0 0 0-.008.049.062.062 0 0 0 .03.039l.136.04c.177-.16.383-.283.607-.364a8.255 8.255 0 0 1 1.39-.115c.032-.004.076-.038.076-.072v-.25c-.004.022-.049.032-.077.035v.005zM5.706 16.843c-.104.342-.205.373-.468.56a1.049 1.049 0 0 1-.842.145 1.021 1.021 0 0 1-.463-.323.061.061 0 0 0-.066-.01 2.625 2.625 0 0 1-.566.287.817.817 0 0 1-1.028-.398l-.01-.026-.023-.072-.006-.027a1.05 1.05 0 0 1-.017-.082v-.02a.9.9 0 0 1-.008-.104v.063c-.013.21.024.42.109.612a.956.956 0 0 0 1.038.334c.19-.088.374-.19.547-.308.011-.005.023-.007.035-.005a.061.061 0 0 1 .031.014.918.918 0 0 0 1.324.194.822.822 0 0 0 .35-.402.91.91 0 0 0 .072-.489.287.287 0 0 1-.01.052v.005zm13.06-2.058a.228.228 0 0 1-.145.114.125.125 0 0 1-.129-.052 5.401 5.401 0 0 0-3.323-1.272 22.28 22.28 0 0 0-9.645 2.472c-.031.015-.055.081-.029.105a.511.511 0 0 1 .108.148 22.275 22.275 0 0 1 9.621-2.461 5.404 5.404 0 0 1 3.324 1.273.165.165 0 0 0 .143.071c.055-.013.09-.107.104-.156.035-.195.047-.393.037-.59a1.134 1.134 0 0 1-.068.343l.001.005zm-4.91 5.22a4.093 4.093 0 0 0-1.05-.236c-2.54.06-5.024.757-7.225 2.025-.035.019-.096.088-.081.124.027.066.051.132.072.2a.283.283 0 0 1 .061-.057 15.205 15.205 0 0 1 7.225-2.025 3.67 3.67 0 0 1 1.049.248v-.269a.212.212 0 0 0-.051-.016v.005zm.06 5.059v.049h-.107a11.583 11.583 0 0 0-3.884.46 17.035 17.035 0 0 0-3.817 1.68c-.081.048-.077.044 0 .123a.601.601 0 0 1 .062.08c1.19-.698 2.46-1.25 3.782-1.644a11.537 11.537 0 0 1 3.884-.482.694.694 0 0 0 .08 0v-.266zm13.34 11.483a9 9 0 0 1-1.705.94l.083.153.011.023a9.274 9.274 0 0 0 1.611-.9l.052-.015c.854-.216 4.302-1.452 6.415-1.48a7.541 7.541 0 0 1 3.739.9 6.424 6.424 0 0 1 1.57 1.287c.015.016.029.06.085.071a.082.082 0 0 0 .076-.05 2.74 2.74 0 0 0 .19-1.115 2.62 2.62 0 0 1-.19.899.082.082 0 0 1-.076.05c-.056-.01-.069-.072-.084-.087a6.373 6.373 0 0 0-1.571-1.27 7.57 7.57 0 0 0-3.737-.928c-2.113.029-5.53 1.275-6.386 1.49 0 0-.05.02-.08.028l-.002.004zm9.006 6.186a.378.378 0 0 1-.27.057 6.477 6.477 0 0 0-.92-.924 3.496 3.496 0 0 0-1.455-.719 7.136 7.136 0 0 0-2.473-.067c-1.588.219-3.12.744-4.508 1.547-.072.051-.107.072-.077.107.03.034.05.063.072.092a12.468 12.468 0 0 1 4.495-1.524 7.193 7.193 0 0 1 2.474.05 3.458 3.458 0 0 1 1.444.719c.341.276.654.585.934.923a.383.383 0 0 0 .27-.056c.086-.186.132-.388.134-.592a.85.85 0 0 1-.12.382v.005zm-3.399 6c-.03.028-.114 0-.143-.018a3.556 3.556 0 0 0-.777-.613 4.14 4.14 0 0 0-2.354-.381 6.8 6.8 0 0 0-3.22 1.414c-.06.046-.087.115-.057.138l.08.064a6.916 6.916 0 0 1 3.225-1.426 4.14 4.14 0 0 1 2.355.381c.286.168.547.375.776.614a.158.158 0 0 0 .144-.018.864.864 0 0 0 .26-.718.824.824 0 0 1-.289.563z" fill="#432918"/><path d="M29.545 34.21l.19-.044 1.167-.258c.044 0 .079-.062.083-.082a5.04 5.04 0 0 1 .702-1.601 2.255 2.255 0 0 1 2.8-.605.126.126 0 0 1-.022.216c-.332.14-.62.367-.836.656a2.102 2.102 0 0 0-.51.876c-.007.037-.015.087.02.103.05.034.618.005.844.052.042.008.052-.028.082-.076a3.212 3.212 0 0 1 1.022-1.547 1.94 1.94 0 0 1 1.796-.32 1.264 1.264 0 0 1 .862.695c.013.022.013.09-.038.09a2.585 2.585 0 0 0-1.135.515 2.306 2.306 0 0 0-.698.776c-.005.013-.061.09.042.114.289.063.572.145.85.246.031.034.11-.004.127-.03a2.213 2.213 0 0 1 1.411-.958c.862-.133 1.681.24 1.816.814.018.08.04.183-.028.176a2.26 2.26 0 0 0-1.293.485 1.545 1.545 0 0 0-.242.196c-.066.046-.052.086-.045.093.19.194.835.663.88 1.312a2.6 2.6 0 0 1-.182 1.186.081.081 0 0 1-.076.05c-.056-.009-.072-.053-.086-.071a6.421 6.421 0 0 0-1.57-1.287 7.541 7.541 0 0 0-3.738-.9c-2.114.029-5.56 1.264-6.415 1.48l-.052.015s.477-.505 2.272-2.368zm5.47 4.29a2.105 2.105 0 0 0-1.042.956c-.015.025-.053.114-.086.086-.206-.017-.557-.071-.762-.09-.094-.006-.056-.09-.054-.103a1.71 1.71 0 0 1 .444-.729 2.703 2.703 0 0 1 1.045-.738.048.048 0 0 0 .014-.063 1.44 1.44 0 0 0-1.069-.527 1.86 1.86 0 0 0-1.418.547 2.885 2.885 0 0 0-.776 1.704c-.02.052-.046.077-.084.078a4.61 4.61 0 0 1-.641.06c-.033-.01-.032-.047-.03-.085.004-.325.084-.644.233-.933a3.429 3.429 0 0 1 1.262-1.337c.085-.058.089-.176.062-.19a2.095 2.095 0 0 0-1.983.193c-.39.213-.706.543-.9.943a6.077 6.077 0 0 0-.396 1.781.144.144 0 0 1-.088.081c-.26.051-.517.118-.77.2a.06.06 0 0 1-.052-.048 2.54 2.54 0 0 1 .342-1.67c.127-.231.298-.436.503-.603a.086.086 0 0 0-.04-.158 2.254 2.254 0 0 0-1.49.263 2.042 2.042 0 0 0-1.038 1.534c-.054.457-.022.92.096 1.365 0 .014.014.062-.037.072-.175.084-.646.332-.816.413-.011.005-.041.013-.05-.013a1.335 1.335 0 0 0-.617-.824 1.212 1.212 0 0 0-1.024.05c-.212.12-.385.3-.497.517a.861.861 0 0 0 .293 1.046c.014.013.038.042 0 .057-.207.11-.21.136-.367.371a.984.984 0 0 0 .119 1.031 1.068 1.068 0 0 0 1.609.19c.008-.007.04.012.058.046.086.136.197.255.328.349a1.066 1.066 0 0 0 1.044 0 .95.95 0 0 0 .483-.954.87.87 0 0 0-.253-.605c-.03-.035 0-.055.078-.106a12.424 12.424 0 0 1 4.507-1.531 7.178 7.178 0 0 1 2.473.051 3.457 3.457 0 0 1 1.444.718c.342.276.654.585.934.924a.378.378 0 0 0 .27-.057 1.517 1.517 0 0 0 .032-1.189 3.687 3.687 0 0 0-.882-1.355c-.007-.006-.008-.032-.009-.046-.008-.072.035-.103.12-.181.361-.34.808-.577 1.292-.685.062-.004.086-.05.047-.121a1.508 1.508 0 0 0-1.859-.686h-.002zm8.7-33.503s-.273 16.64-.483 24.89a22.84 22.84 0 0 1-1.31 7.124 34.232 34.232 0 0 1-3.73 7.388 29.608 29.608 0 0 1-5.773 6.326 25.87 25.87 0 0 1-2.743 2.007 34.987 34.987 0 0 1-4.685 2.37c-.535.229-1.005.442-1.427.586-.441.17-.893.31-1.353.419-.46-.11-.913-.25-1.354-.42-.426-.143-.891-.358-1.427-.585a34.982 34.982 0 0 1-4.685-2.37 25.846 25.846 0 0 1-2.743-2.007A29.62 29.62 0 0 1 6.228 44.4a34.249 34.249 0 0 1-3.729-7.388 22.838 22.838 0 0 1-1.31-7.124C.98 21.64.707 4.99.707 4.99l.138-.052a54.176 54.176 0 0 1 6.84-2.222c3.21-.775 6.476-1.3 9.767-1.572 1.614-.144 3.07-.191 4.693-.21h.138c1.623.019 3.08.067 4.693.21 3.292.271 6.557.797 9.767 1.572a54.172 54.172 0 0 1 6.84 2.222c.045.018.089.038.131.06zM2.798 35.295h13.07a7.23 7.23 0 0 1-1.925-4.822v-.207H2.012c.07 1.7.334 3.388.787 5.03zM21.695 47.29H9.486a29.564 29.564 0 0 0 2.91 2.771 24.863 24.863 0 0 0 2.639 1.948 33.525 33.525 0 0 0 4.504 2.298c.516.221.964.43 1.372.568.295.1.561.195.786.27v-7.857l-.002.002zm0-5.685H5.445c.43.778.896 1.551 1.398 2.32.627.95 1.317 1.858 2.064 2.718h12.788v-5.038zm0-3.43a8.96 8.96 0 0 1-5.25-2.293H2.97c.09.292.185.584.287.876a31.705 31.705 0 0 0 1.84 4.2h16.599v-2.783zm0-30.456a53.877 53.877 0 0 0-4.063.197 61.127 61.127 0 0 0-9.39 1.523 51.73 51.73 0 0 0-6.608 2.17c.093 5.347.235 13.112.359 18.014H13.94l-.007-4.479h-.107a11.547 11.547 0 0 0-3.884.477 17.093 17.093 0 0 0-3.817 1.663c-.081.048-.077.045 0 .124.145.185.256.395.329.619a.702.702 0 0 1-.386.777.982.982 0 0 1-.814.144 1.255 1.255 0 0 1-.517-.352c-.055-.06-.097.016-.16.059-.17.107-.347.2-.531.28a.838.838 0 0 1-1.037-.283.908.908 0 0 1 .024-1.085c.11-.115.296-.2.431-.32.028-.026.053-.076.03-.107a2.012 2.012 0 0 1-.227-.35.934.934 0 0 1 .273-.99.954.954 0 0 1 .983-.082c.2.088.359.372.485.552.027.038.062.064.102.037l.313-.185c.041-.028.02-.117 0-.163-.389-.968-.481-1.626-.116-2.31a1.702 1.702 0 0 1 1.097-.873c.286-.086.595-.067.868.056.026.012.018.063 0 .085a2.53 2.53 0 0 0-.616 1.133c-.073.373-.057.757.048 1.122.028.063.06.087.11.071.132-.041.56-.206.742-.25.055-.013.02-.103.011-.156a2.992 2.992 0 0 1 .072-1.822 2.213 2.213 0 0 1 2.096-1.221c.149 0 .353.143.236.233a2.313 2.313 0 0 0-1.115 2.37c.005.035.051.072.085.064.297-.085.612-.166.897-.256.05-.016.04-.098.043-.15a3.26 3.26 0 0 1 .718-2.01 2.5 2.5 0 0 1 2.057-.834.861.861 0 0 1 .385.216.13.13 0 0 1-.021.152 4.3 4.3 0 0 0-1.667 2.09c-.009.024.038.073.063.068.444-.034.917-.1 1.36-.143.065-.007.071-.016.081-.056a2.31 2.31 0 0 1 .993-1.264.43.43 0 0 0 .077-.056l-.004-2.163a4.098 4.098 0 0 0-1.102-.254c-2.54.06-5.024.757-7.225 2.025-.035.019-.096.088-.081.125.277.655.11 1.04-.261 1.286a.887.887 0 0 1-1.221-.288.1.1 0 0 0-.137-.022c-.25.17-.548.258-.85.25a.775.775 0 0 1-.682-.484.968.968 0 0 1 .632-1.227c.051-.016.042-.056.007-.096a.82.82 0 0 1 .175-1.22.895.895 0 0 1 1.311.508c.013.048.017.03.065.016a1.31 1.31 0 0 0 .424-.16c.058-.027.125-.23.127-.284.035-1.106-.018-1.803.718-2.522.32-.312 1.365-.559 1.628-.215.018.023.024.05 0 .064a1.519 1.519 0 0 0-.562.555 2.139 2.139 0 0 0-.337 1.555c.007.03.01.1.038.09.315-.104.625-.215.919-.342.033-.013 0-.072 0-.106a3.148 3.148 0 0 1 .631-2.093c.48-.528 1.673-1.062 2.254-.556.054.046 0 .117-.061.148-.31.16-.578.39-.786.668a3.009 3.009 0 0 0-.56 1.2c-.01.047.057.152.103.144.258-.053.74-.113.999-.2.135-.047.097-.077.121-.216a2.421 2.421 0 0 1 2.179-2.216 1.744 1.744 0 0 1 1.16.175c.09.06.171.133.242.216a.091.091 0 0 1-.048.143 2.529 2.529 0 0 0-1.192.411 1.695 1.695 0 0 0-.79 1.111c-.005.055.025.129.08.129a15.6 15.6 0 0 0 1.084-.03.091.091 0 0 0 .089-.072 2.266 2.266 0 0 1 1.436-1.386 2.065 2.065 0 0 1 2.138.487c.072.092.055.12.005.124a3.929 3.929 0 0 0-1.644.719c-.068.066-.133.11-.034.119h6.777l.003-10.615zm5.579 28.856h.005a9.025 9.025 0 0 1-1.724.949l.012-.005.082.152c.064.15.09.314.076.476a.54.54 0 0 1-.403.523.858.858 0 0 1-.892-.154.727.727 0 0 1-.703.247.766.766 0 0 1-.502-.382c-.037-.1-.06-.196-.072-.23a8.205 8.205 0 0 1-.726.053l-.007 16.772v.264c.267-.072.646-.21 1.088-.36.41-.139.857-.346 1.373-.567a33.542 33.542 0 0 0 4.504-2.298 24.864 24.864 0 0 0 2.638-1.948 28.622 28.622 0 0 0 5.552-6.137 33.325 33.325 0 0 0 3.586-7.167 22.291 22.291 0 0 0 1.253-6.692H30.636v.401a7.563 7.563 0 0 1-3.368 6.101l.006.002zM42.55 24.222h-11.9v.921l-.008 4.281h11.792c.038-1.524.078-3.31.116-5.206v.004zm.102-5.159H30.66v4.429h11.914c.022-1.45.051-2.947.08-4.432v.003zm.106-5.776H22.425v5.046h20.242c.034-1.754.064-3.472.092-5.05v.004zm.03-1.68a51.747 51.747 0 0 0-6.61-2.17 61.132 61.132 0 0 0-9.389-1.522 56.225 56.225 0 0 0-4.365-.202v4.925h20.348l.015-1.034v.004zm.1-5.903a1.42 1.42 0 0 0-.133-.058 51.793 51.793 0 0 0-6.577-2.154 61.116 61.116 0 0 0-9.389-1.525c-1.552-.138-2.952-.185-4.513-.204h-.132c-1.561.02-2.96.066-4.513.204a61.108 61.108 0 0 0-9.388 1.525 51.788 51.788 0 0 0-6.577 2.154l-.132.051s.034 2.136.088 5.243a.266.266 0 0 1 .044-.022 51.832 51.832 0 0 1 6.577-2.155 61.168 61.168 0 0 1 9.388-1.53 57.143 57.143 0 0 1 4.519-.246h.133c1.56.019 2.954.108 4.506.246 3.165.263 6.304.772 9.389 1.523 2.238.57 4.435 1.29 6.577 2.155.015.005.03.013.044.022.054-3.1.088-5.232.088-5.232v.003zM31.856 45.406a2.5 2.5 0 0 0-.795.912c-.012.022-.028.09-.06.072l-.487-.148c-.011 0-.011-.054-.006-.064a2.563 2.563 0 0 1 1.6-1.298c.035-.015.025-.046.017-.065-.252-.617-1.52-.564-2.139-.17a2.69 2.69 0 0 0-1.133 1.642c-.007.045.015.082-.016.09a2.85 2.85 0 0 1-.528.127.054.054 0 0 1-.052-.051 1.48 1.48 0 0 1 .156-.903c.206-.344.455-.66.743-.939a.099.099 0 0 0-.005-.143 1.143 1.143 0 0 0-1.172 0 2.257 2.257 0 0 0-1.091 1.287c-.107.432-.098.885.029 1.312.005.017.025.055-.005.068-.18.072-.314.151-.491.222-.009 0-.054.013-.063-.01a1.45 1.45 0 0 1 .2-1.694c.041-.034.063-.079-.017-.107a1.35 1.35 0 0 0-1.221.444 1.557 1.557 0 0 0-.27 1.514c.045.21.122.413.228.6.007.011.072.049.034.064-.127.1-.223.17-.346.265-.008.006-.032.018-.043 0a1.118 1.118 0 0 0-.666-.548.785.785 0 0 0-.731.202.832.832 0 0 0 .34 1.385c.014.006.038.027.011.045a1.35 1.35 0 0 0-.437.49.867.867 0 0 0 .196.933.85.85 0 0 0 .667.202 1.392 1.392 0 0 0 .819-.718c.003-.008.05-.04.072-.015.147.214.36.375.605.46a.745.745 0 0 0 .743-.149.804.804 0 0 0 .256-.92 1.402 1.402 0 0 0-.463-.496c-.03-.023-.006-.08.054-.125a6.832 6.832 0 0 1 3.223-1.427 4.141 4.141 0 0 1 2.355.381c.286.167.547.374.776.613.03.018.115.046.144.018a.912.912 0 0 0 .082-1.259 1.505 1.505 0 0 0-.473-.377.1.1 0 0 1-.017-.035c.142-.36.382-.673.691-.904a3.23 3.23 0 0 1 .679-.33c.05-.014.043-.043.017-.105-.293-.674-1.46-.7-2.01-.348zM17.902 10.773a1.392 1.392 0 0 1 1.213.917c.01.031-.04.063-.071.067a8.2 8.2 0 0 0-1.39.115c-.288.112-.55.284-.769.503-.023.02-.007.08.023.087a2.782 2.782 0 0 1 1.406.79 1.518 1.518 0 0 1 .468 1.558.224.224 0 0 1-.123.132.166.166 0 0 1-.144-.072 5.4 5.4 0 0 0-3.323-1.273 22.28 22.28 0 0 0-9.645 2.472c-.032.016-.055.082-.029.106a.897.897 0 0 1 .208.69c-.104.342-.205.373-.468.561a.904.904 0 0 1-1.305-.181.061.061 0 0 0-.066-.01c-.177.12-.367.22-.566.297a.81.81 0 0 1-.986-.316 1.016 1.016 0 0 1 .472-1.37.07.07 0 0 0 .034-.047.072.072 0 0 0-.01-.056.83.83 0 0 1 .319-1.123c.359-.207 1.158-.34 1.374.342a.057.057 0 0 0 .05.047c.009 0 .017 0 .025-.003.18-.056.358-.124.53-.204.04-.02.063-.108.044-.19a3.207 3.207 0 0 1 .457-2.585c.75-.853 1.643-1.242 2.585-.862.037.015 0 .09-.027.118-.37.376-.885.629-1.16 1.078-.28.451-.42.976-.402 1.508 0 .026.064.03.09.022.472-.16 1.066-.366 1.631-.543.037-.012.109-.014.106-.053a4.74 4.74 0 0 1 .066-.943 2.595 2.595 0 0 1 1.55-1.995 2.38 2.38 0 0 1 1.832-.027c.038.014.059.092.029.119a8.064 8.064 0 0 0-1.133.909c-.345.373-.554.85-.594 1.356 0 .016.012.043.027.04a13.787 13.787 0 0 1 1.555-.287.101.101 0 0 0 .092-.084c.078-.48.47-1.824 1.127-2.257a2.844 2.844 0 0 1 2.39-.44c.184.091.342.225.461.39.028.036-.023.104-.066.12a4.573 4.573 0 0 0-1.562.887c-.314.325-.519.74-.586 1.187 0 .032.048.034.08.034.449-.007.914 0 1.364.015a.082.082 0 0 0 .075-.046 2.57 2.57 0 0 1 1.15-1.27c.5-.218 1.05-.297 1.592-.23z" fill="url(#paint1_linear)"/><path fill-rule="evenodd" clip-rule="evenodd" d="M36.88 4.17c1.69.452 3.354.994 4.985 1.624.043.016.048.063.05.109.02.359.008.384.007.744 0 .082-.051.095-.138.062-.992-.365-2.416-.862-3.713-1.194-.018-.005-.05.006-.05.024v.442c0 .02.023.037.042.042 1.326.365 2.576.77 3.768 1.203a.067.067 0 0 1 .044.058c.021.36.013.719 0 1.078 0 .02 0 .049-.021.041-1.165-.43-2.5-.87-3.842-1.245-.017-.004-.05 0-.05.017l-.017.415a.065.065 0 0 0 .042.06c1.293.347 2.567.762 3.817 1.244a.095.095 0 0 1 .058.076c.015.316 0 .64-.006.955 0 .022 0 .078-.072.051a51.141 51.141 0 0 0-4.962-1.609c-.028-.007-.041-.046-.041-.076.014-1.393.049-2.683.082-4.076 0-.015 0-.045.016-.042V4.17zm-5.758 3.017c.355.062.748.11 1.04.17.033.006.08-.017.08-.051-.004-.474 0-1.027-.008-1.46 0-.03.014-.033.046-.027.855.152 1.686.32 2.534.502.017.004.119.018.118.072-.006.497-.016.92-.03 1.417a.094.094 0 0 0 .062.092c.333.075.651.156.969.23.082.019.097.004.098-.027.05-1.037.068-2.699.083-4.1 0-.02-.007-.046-.025-.05-.35-.081-.68-.166-1.039-.243-.032-.007-.05.048-.052.08-.035.513-.02.987-.061 1.5 0 .018 0 .028-.02.024-.85-.176-1.759-.366-2.604-.524-.023-.005-.012-.044-.011-.071.005-.503.004-.999.007-1.501a.077.077 0 0 0-.058-.068 53.37 53.37 0 0 0-.96-.157c-.024 0-.049.032-.049.057-.014.63-.102 3.35-.121 4.074v.06zM26.74 2.452a.929.929 0 0 0-.948.761L25.77 5.96a.718.718 0 0 0 .548.666c1.403.132 2.782.257 4.349.495.024 0 .072-.017.072-.04v-.956c0-.02-.045-.065-.064-.068-1.043-.132-2.42-.317-3.65-.445a.174.174 0 0 1-.134-.16V3.584c0-.08.112-.12.191-.114 1.216.099 2.43.321 3.643.451.032.004.082-.016.083-.049l.025-.876a.085.085 0 0 0-.067-.077c-1.35-.196-2.382-.306-4.027-.47v.003zm-1.864-.13c-1.34-.057-2.795-.097-4.142-.044-.28.012-.662.25-.666.53l-.019 1.487c-.004.305.398.543.703.55 1.063.024 2.002.005 3.029.072.076.005.144.05.144.126l-.008.301a.097.097 0 0 1-.103.104c-1.198 0-2.451-.057-3.663.04-.063.005-.06-.012-.064.051l-.054.881-.005.072a37.513 37.513 0 0 1 4.328 0 .735.735 0 0 0 .7-.604l.014-1.44c0-.296-.364-.516-.602-.531-1.015-.063-2.17-.03-3.204-.056a.107.107 0 0 1-.1-.114l.02-.333c0-.064.043-.085.107-.087 1.022-.036 2.547.013 3.59.045a.166.166 0 0 0 .14-.161v-.73c0-.038-.072-.153-.144-.155v-.004zm-6.109 2.661a.726.726 0 0 0 .452-.712 9.97 9.97 0 0 0-.048-1.298.736.736 0 0 0-.689-.566c-.972.017-3.082.287-4.28.436l-.005 4.16v.052l1.08-.14a.031.031 0 0 0 .023-.011.032.032 0 0 0 .007-.024V5.678l2.178-.234c.19-.035.415.105.589.387.14.239.23.504.262.78l1.073-.08c.023 0 .072 0 .067-.021a2.271 2.271 0 0 0-.71-1.528l.001.001zm-.754-.887a.396.396 0 0 1-.32.38l-2.442.24-.02-.017V3.76l.02-.01 2.555-.246a.175.175 0 0 1 .202.157l.005.435zm-3.81-1.267v.014-.014zm-.647.862a.643.643 0 0 0-.251-.455.697.697 0 0 0-.525-.184c-1.248.195-2.504.46-3.769.734a1.149 1.149 0 0 0-.53.328.74.74 0 0 0-.236.473l.01 2.569c.01.225.096.44.244.61a.552.552 0 0 0 .468.253 88.53 88.53 0 0 1 3.755-.74c.242-.057.458-.192.617-.383a.833.833 0 0 0 .225-.53l-.008-2.675zm-1.243 2.393a.287.287 0 0 1-.113.24.67.67 0 0 1-.274.108c-.658.133-1.619.311-2.294.437a.244.244 0 0 1-.202-.04.304.304 0 0 1-.071-.231V4.93a.328.328 0 0 1 .092-.223.56.56 0 0 1 .276-.137c.667-.126 1.541-.297 2.226-.396a.384.384 0 0 1 .255.045.27.27 0 0 1 .126.245l-.02 1.62zm-4.506-1.16a.626.626 0 0 0-.272-.451.838.838 0 0 0-.665-.137c-1.496.383-2.994.953-4.495 1.5a.144.144 0 0 0-.072.12v3.368l.009.76s1.083-.408 1.316-.484c.032-.01.032-.04.032-.072l-.023-1.196c0-.034.005-.083.037-.092L7.41 7.087a.704.704 0 0 0 .317-.232.544.544 0 0 0 .12-.36l-.04-1.571zM6.6 6.174c0 .105-.149.226-.25.256l-2.724.887c-.025.008-.072 0-.072-.028l.004-.823c0-.04.046-.072.084-.083a24.818 24.818 0 0 1 2.766-.926c.083-.023.16.072.167.143.021.192.03.384.025.576v-.003z" fill="url(#paint2_linear)"/><path fill-rule="evenodd" clip-rule="evenodd" d="M3.643 6.599c-.037.01-.085.043-.085.082v-.21c0-.04.046-.072.084-.083.9-.362 1.821-.67 2.758-.924.083-.023.162.072.169.14l.02.206c-.006-.068-.096-.165-.18-.144-.94.257-1.864.57-2.767.934l.001-.001zm4.193-.087a.543.543 0 0 1-.118.355.705.705 0 0 1-.317.231l-3.727 1.14c-.03.01-.037.055-.037.088l.005.209c0-.033 0-.083.031-.092L7.401 7.3a.701.701 0 0 0 .317-.231c.08-.1.122-.227.118-.355v-.203zM3.66 9.53c0 .033 0 .062-.032.072-.232.076-1.319.489-1.319.489v.208s1.087-.408 1.32-.484c.03-.01.03-.04.03-.072v-.214zm8.546-5.3a.384.384 0 0 0-.254-.045c-.685.098-1.556.27-2.221.396a.556.556 0 0 0-.276.136.328.328 0 0 0-.092.223v.228a.327.327 0 0 1 .092-.223.557.557 0 0 1 .276-.136c.665-.126 1.536-.297 2.22-.396a.383.383 0 0 1 .255.046.265.265 0 0 1 .122.244v-.226a.27.27 0 0 0-.121-.25v.003zm.515 3.048a86.823 86.823 0 0 0-3.746.739.55.55 0 0 1-.467-.253 1.005 1.005 0 0 1-.241-.574v-.02.207c.023.212.107.412.243.575.148.174.324.296.466.265a86.257 86.257 0 0 1 3.748-.718c.24-.058.457-.192.615-.382a.83.83 0 0 0 .225-.53v-.23a.828.828 0 0 1-.225.53 1.142 1.142 0 0 1-.617.387l-.001.004zm5.09-3.77l-2.555.245-.02.01v.23l.02-.01 2.555-.246a.174.174 0 0 1 .203.157v-.23a.174.174 0 0 0-.202-.161v.004zm1.41 1.005v-.258a.75.75 0 0 1-.452.729c.053.04.104.086.152.134a.705.705 0 0 0 .297-.606h.002zm.184 2.018l-1.072.08a2.021 2.021 0 0 0-.263-.78c-.174-.281-.397-.423-.588-.387l-2.179.234v.216l2.179-.235c.19-.035.414.106.588.387.14.24.23.505.263.78l1.072-.08c.023 0 .072 0 .067-.021v-.216c.001.023-.043.02-.066.022h-.001zm-4.128.385l-1.077.14v.215l1.077-.14a.032.032 0 0 0 .03-.035V6.88a.03.03 0 0 1-.002.013.03.03 0 0 1-.015.019.032.032 0 0 1-.012.004h-.001zm9.603-3.328a.166.166 0 0 0 .139-.161V3.21a.165.165 0 0 1-.139.161c-1.043-.032-2.568-.082-3.59-.044-.065 0-.105.022-.108.086l-.015.207c.003-.065.058-.077.122-.079 1.025-.036 2.55.013 3.593.045h-.002zm-4.128 1.477c1.063.024 2.003.004 3.03.072.071.005.137.044.137.12l.007-.209c0-.076-.068-.121-.144-.126-1.027-.068-1.966-.049-3.029-.072-.305-.006-.707-.245-.702-.55v.215c-.004.304.398.543.703.55h-.002zm3.602 1.428a37.513 37.513 0 0 0-4.328 0v.216a37.482 37.482 0 0 1 4.328 0 .735.735 0 0 0 .7-.605v-.215a.736.736 0 0 1-.699.604h-.001zm6.372-2.565c-1.213-.13-2.427-.353-3.642-.451-.08-.006-.191.034-.191.113v.216c0-.08.112-.12.19-.114 1.216.098 2.43.32 3.643.45.033 0 .083-.016.083-.048v-.216c.001.033-.049.052-.08.052l-.003-.002zm-.059 3.197c-1.566-.239-2.944-.363-4.348-.495a.718.718 0 0 1-.549-.666v.215a.719.719 0 0 0 .549.665c1.402.133 2.77.25 4.335.489.023.003.072-.017.072-.041l.013-.208c-.001.023-.046.043-.07.04h-.002zm4.261-.51c0-.084 0-.125.004-.215 0-.057-.101-.072-.119-.072a66.595 66.595 0 0 0-2.533-.503c-.032-.005-.047-.003-.046.028v.216c0-.032.011-.034.043-.028.854.152 1.685.32 2.533.503.023.002.118.016.12.07l-.002.001zm-2.766.747c-.292-.06-.685-.109-1.04-.17v.182c.355.062.735.105 1.028.163.033.007.08-.017.08-.05l.01-.163a.071.071 0 0 1-.077.037h-.001zm3.77.778c-.316-.072-.635-.154-.969-.229a.094.094 0 0 1-.061-.092v.215a.094.094 0 0 0 .061.092c.334.076.639.154.956.227.082.02.097.005.099-.027l.013-.215c0 .033-.015.047-.097.028l-.002.001zm5.85-1.428c-.991-.365-2.415-.862-3.712-1.195-.018-.005-.05.006-.05.025v.21c0-.019.035-.028.053-.024 1.297.332 2.702.822 3.694 1.188.087.032.137.019.138-.062l.015-.186c-.008.063-.056.072-.136.042l-.002.002zm.072 1.69a50.25 50.25 0 0 0-3.842-1.245c-.017-.004-.049 0-.05.016l-.01.209a.096.096 0 0 1 .06-.01c1.342.375 2.664.812 3.83 1.245.018.007.02-.022.02-.041l.013-.215c0 .022-.002.046-.02.04V8.4zm-.072 1.573a51.132 51.132 0 0 0-4.961-1.609c-.028-.007-.042-.046-.042-.076v.216c0 .028.014.068.042.071 1.675.45 3.327.985 4.948 1.603.072.025.072-.03.072-.052l.012-.195c.001.03-.012.062-.068.04l-.003.002z" fill="#432918"/><path d="M41.754 6.245c0 .09-.004.25-.01.336h-.004l-.262-.1-.183-.071-.021-.008c-.454-.162-.89-.311-1.304-.445a31.19 31.19 0 0 0-1.174-.36h-.018l-.322-.09-.334-.094-.283-.077v.8l.176.048.124.033.215.062.216.062a51.552 51.552 0 0 1 2.802.897l.11.037.248.084v.11c0 .094-.01.711-.01.711l-.015-.006-.24-.072-.168-.053c-.48-.17-.987-.338-1.508-.502a57.273 57.273 0 0 0-1.58-.474l-.413-.119-.008.392-.006.382v.009l.167.05.324.096.318.095.128.04.129.04c.456.138.896.279 1.317.422.42.142.866.277 1.247.423l.04.013.04.017.073.028.136.052c.009.25.002.501-.019.75h-.008l-.242-.085-.046-.016-.046-.017c-.77-.28-1.538-.515-2.227-.736a50.144 50.144 0 0 0-2.16-.653v-.018l.027-1.59c.012-.606.034-2.25.04-2.298.069.01 1.521.427 2.221.653.7.226 1.408.47 2.1.727l.026.01.157.056.226.08c.003.092.004.28.004.369zm-5.84-2.119a8.535 8.535 0 0 0-.317-.078 51.19 51.19 0 0 0-.402-.09v.266c0 .048 0 .096-.004.144-.005.048 0 .095 0 .144v.04c0 .124-.006.25-.012.378a8.842 8.842 0 0 1-.023.39v.089l-.006.163h-.007l-.191-.04-.144-.03-.12-.025-.118-.025-.902-.186c-.31-.063-.627-.127-.934-.187l-.045-.009-.043-.008-.229-.042-.228-.04-.06-.01.007-.451.006-.438v-.759l-.192-.03-.143-.023-.174-.028c-.058-.01-.184-.027-.242-.035v.184a863.536 863.536 0 0 1-.062 2.064c0 .115-.007.228-.011.337l-.012.317-.017.473c-.005.145-.008.375-.009.49v.009c.043.006.16.031.2.038l.116.02.198.033.3.047h.012l.005-.295.003-.223.007-.28c.004-.156.008-.348.008-.493v-.09c0-.047 0-.15.004-.18v-.004c.02 0 .095.016.123.022l.03.006.031.006c.144.025.493.093.928.18.434.085.952.19 1.43.286l.063.013.062.012.158.035.158.035h.01l-.006.28v.233c0 .093 0 .18-.005.264-.005.085-.005.166-.007.25v.202l-.003.094-.007.157v.01l.243.056.166.04.143.035.232.053v-.004l.007-.23.003-.111c.015-.46.027-.986.036-1.54l.022-1.706v-.2h-.008l-.029-.005zm-7.731-1.393c-.646-.072-1.164-.125-1.395-.15a.782.782 0 0 0-.56.19.683.683 0 0 0-.287.458c-.017.165-.007 1.34-.007 1.34l-.007 1.404c0 .072.011.142.036.21a.47.47 0 0 0 .106.162.595.595 0 0 0 .277.148.762.762 0 0 0 .17.024l.042.003.04.004c.575.054 1.188.111 1.817.177.629.067 1.225.127 1.867.216l.287.044.006-.387v-.334l-.334-.048-.253-.036-.028-.004h-.028c-.497-.064-.993-.118-1.527-.183-.535-.065-1.03-.129-1.542-.18a.127.127 0 0 1-.11-.124V3.583a.216.216 0 0 1 .071-.19.377.377 0 0 1 .216-.072c.332.026 3.19.41 3.644.471l.007-.353c.003-.096 0-.19 0-.292V3.03c-.614-.087-1.664-.202-2.508-.298zm-9.006 2.96c.111.227.178.474.197.727l-.902.054a2.834 2.834 0 0 0-.277-.748.737.737 0 0 0-.71-.43c-.39.044-2.313.24-2.32.247-.007.006 0 1.232 0 1.232l-.417.056-.416.055V2.945s3.712-.424 4.124-.4c.412.025.503.24.526.457a8.6 8.6 0 0 1 .05 1.371.918.918 0 0 1-.432.584c.24.204.436.454.577.735zm-.991-2.04a.26.26 0 0 0-.079-.216.503.503 0 0 0-.292-.077l-2.676.266v1.189l1.287-.116 1.286-.116a.548.548 0 0 0 .347-.157.478.478 0 0 0 .132-.338l-.005-.435zm-4.825.028c0 .184.016 2.468.016 2.652a.854.854 0 0 1-.624.737c-.348.067-3.387.665-3.663.718-.275.053-.624-.297-.624-.588l-.005-2.635c0-.292.318-.527.588-.594.271-.067 3.475-.683 3.683-.724a.546.546 0 0 1 .629.434zm-.849.703c0-.225-.097-.425-.44-.369-.44.072-1.878.331-2.358.426-.395.076-.548.224-.548.563v1.683c0 .24.15.42.4.373a307.4 307.4 0 0 0 2.599-.502.454.454 0 0 0 .359-.471c.004-.224-.012-1.584-.012-1.703zm11.997-.32a23.035 23.035 0 0 0-.983-.034c-.337-.005-.685-.006-1.014-.007-.21 0-1.35.009-1.374 0a.121.121 0 0 1-.06-.034.208.208 0 0 1-.044-.13c0-.05 0-.1.005-.148v-.144a1.968 1.968 0 0 1 .02-.34c.022-.048.072-.072.183-.078.086 0 1.476.005 2.42.012h.342c.266-.007.584.016.82.012v-.687a31.796 31.796 0 0 0-1.108-.044h-.076a53.562 53.562 0 0 0-.737-.017c-.986-.015-2.055 0-2.17 0a.667.667 0 0 0-.312.126.329.329 0 0 0-.158.215l-.009.797-.01.796a.305.305 0 0 0 .16.216.647.647 0 0 0 .33.112l.526.008.51.006c.344 0 .708.006 1.073.014s.731.021 1.082.044c.1.007.143.048.163.11.013.08.015.16.006.24l-.004.093-.005.092a.54.54 0 0 1-.032.253c-.03.048-.094.064-.223.064-.007 0-.36-.007-.496-.007H22.9l-.512-.006h-.514c-.296 0-.581 0-.847.01-.266.011-.568.023-.79.038l-.027.688c.38-.018.79-.034 1.107-.042.318-.008.61-.012.871-.012a23.486 23.486 0 0 1 1.309.034l.43.016.487.014a.553.553 0 0 0 .31-.127.383.383 0 0 0 .168-.262l.007-.755.007-.756a.39.39 0 0 0-.144-.243.48.48 0 0 0-.253-.136zM7.645 4.94l.036 1.568a.418.418 0 0 1-.013.114.43.43 0 0 1-.114.186.503.503 0 0 1-.2.138l-3.87 1.21.021 1.33s-.973.352-1.03.365V7.984c0-.684-.025-1.94-.022-1.974.002-.034.022-.045.076-.063.054-.02 1.24-.445 2.707-.95.438-.15 1.458-.46 1.666-.496a.684.684 0 0 1 .492.082.503.503 0 0 1 .251.357zm-.881 1.201c0-.109-.019-.442-.03-.55a.335.335 0 0 0-.183-.256.277.277 0 0 0-.108-.024h-.048s-.868.247-1.335.405c-.468.158-1.645.608-1.645.608l.017 1.169 2.971-.956a.587.587 0 0 0 .234-.144.383.383 0 0 0 .127-.252zm12.91 13.966v1.084a.61.61 0 0 1-.079.347.318.318 0 0 1-.287.128.337.337 0 0 1-.293-.128.594.594 0 0 1-.085-.347v-1.084a.144.144 0 0 0-.288 0v.994a1.05 1.05 0 0 0 .144.603.598.598 0 0 0 .526.239.574.574 0 0 0 .525-.24c.1-.183.145-.392.13-.6v-.996a.144.144 0 1 0-.288 0h-.005zm1.46.118a.139.139 0 1 0 0-.277h-.814a.139.139 0 0 0 0 .277h.265v1.57a.144.144 0 0 0 .144.144.144.144 0 0 0 .143-.144v-1.57h.262zm1.287 0a.139.139 0 1 0 0-.277h-.814a.139.139 0 1 0 0 .277h.265v1.57a.144.144 0 1 0 .287 0v-1.57h.262zm1.559.553h-.443c-.12 0-.135.061-.135.115a.131.131 0 0 0 .135.144h.313v.088a.536.536 0 0 1-.384.56.365.365 0 0 1-.354-.235 1.205 1.205 0 0 1-.105-.524 1.16 1.16 0 0 1 .125-.51.348.348 0 0 1 .306-.23.38.38 0 0 1 .304.206.121.121 0 0 0 .16.046.11.11 0 0 0 .066-.053.107.107 0 0 0 .007-.083.532.532 0 0 0-.541-.36.52.52 0 0 0-.509.288 1.326 1.326 0 0 0-.183.697c-.007.249.052.494.17.713a.59.59 0 0 0 .522.334.691.691 0 0 0 .345-.098.917.917 0 0 0 .342-.541c.02-.116.03-.234.027-.352 0-.096-.023-.203-.167-.203l-.001-.002zm4.74-.553a.139.139 0 0 0 0-.277h-.812a.139.139 0 0 0 0 .277h.266v1.57a.144.144 0 0 0 .287 0v-1.57h.259zm-1.674.981l.046-.016a.702.702 0 0 0 .267-.172.54.54 0 0 0 .165-.455.638.638 0 0 0-.248-.473.836.836 0 0 0-.479-.133h-.436a.143.143 0 0 0-.115.046.168.168 0 0 0-.038.11v1.67a.139.139 0 0 0 .085.144.137.137 0 0 0 .059.01.137.137 0 0 0 .143-.153v-.53h.27l.43.594a.15.15 0 0 0 .128.065c.085 0 .135-.045.138-.118a.197.197 0 0 0-.052-.127l-.363-.462zm-.558-.227v-.754h.344a.408.408 0 0 1 .382.217c.02.043.031.09.033.138a.414.414 0 0 1-.46.398l-.3.001zm-1.15-.888a.252.252 0 0 0-.2-.165.233.233 0 0 0-.202.172l-.533 1.675a.13.13 0 0 0 .023.12.145.145 0 0 0 .101.064c.072 0 .138-.01.164-.102l.08-.293h.76l.088.287a.149.149 0 0 0 .143.101.15.15 0 0 0 .125-.057.182.182 0 0 0 .008-.159l-.556-1.643zm.082 1.247h-.588l.312-1.078.328 1.078h-.052zm-8.432-.397a1.4 1.4 0 0 0-.617-.185.263.263 0 0 1-.215-.309.328.328 0 0 1 .345-.223.46.46 0 0 1 .36.157c.078.095.22-.01.22-.088 0-.09-.139-.343-.56-.346a.732.732 0 0 0-.423.12.502.502 0 0 0-.232.377.574.574 0 0 0 .159.451.574.574 0 0 0 .395.158.502.502 0 0 1 .443.226.24.24 0 0 1-.054.266.512.512 0 0 1-.34.116.55.55 0 0 1-.358-.144.192.192 0 0 0-.19-.06c-.101.034-.085.158-.078.18a.682.682 0 0 0 .605.321.749.749 0 0 0 .568-.202.568.568 0 0 0 .155-.403.465.465 0 0 0-.188-.412h.005zm1.275-.701a.139.139 0 1 0 0-.278h-.819a.139.139 0 1 0 0 .277h.265v1.573a.144.144 0 1 0 .288 0V20.24h.266zM6.6 12.657a2.886 2.886 0 0 1 1.042-1.205c.22-.138.228-.195.225-.21-.004-.014-.04-.038-.337-.04a2.11 2.11 0 0 0-1.19.503 2.719 2.719 0 0 0-.844 1.359 5.297 5.297 0 0 0 .036 1.836s-.752.352-1.006.495a1.576 1.576 0 0 0-.287-.554.748.748 0 0 0-.832-.09.594.594 0 0 0-.34.612c.027.194.106.378.23.53a1.33 1.33 0 0 0-.544.334.8.8 0 0 0-.202.749.55.55 0 0 0 .594.34c.312-.066.6-.218.832-.438.105.125.218.243.338.354a.705.705 0 0 0 .431.144.79.79 0 0 0 .354-.085.636.636 0 0 0 .32-.618c-.038-.353-.372-.49-.354-.62a20.855 20.855 0 0 1 5.393-2.098 19.986 19.986 0 0 1 3.901-.617 6.051 6.051 0 0 1 2.488.254c.661.17 1.268.508 1.761.98l.012.012a1.647 1.647 0 0 0-.914-1.442 3.318 3.318 0 0 0-1.464-.489 2.95 2.95 0 0 1 .445-.58c.28-.274.636-.46 1.021-.532.34-.047.682-.067 1.025-.06a.775.775 0 0 0-.696-.472 2.385 2.385 0 0 0-1.175.107 2.805 2.805 0 0 0-1.48 1.516 17.52 17.52 0 0 0-2.083.011c.071-.56.278-1.096.603-1.558.375-.44.871-.757 1.426-.914a.82.82 0 0 0 .236-.117c-.117-.113-.276-.23-.861-.251a2.282 2.282 0 0 0-1.873 1.03 4.03 4.03 0 0 0-.588 1.832c-1.11.199-2.391.528-2.391.528a3.8 3.8 0 0 1 .283-1.319c.263-.526.67-.967 1.173-1.271 0 0 .192-.124.236-.162a.975.975 0 0 0-.48-.072 2.447 2.447 0 0 0-1.063.288 2.17 2.17 0 0 0-1.111 1.89c-.017.17.032.837 0 .999-.857.22-1.7.486-2.529.797a3.081 3.081 0 0 1 .24-1.686zm9.289 4.773s.28-.08.39-.117a.821.821 0 0 0-.192-.136 1.683 1.683 0 0 0-.821-.193 2.038 2.038 0 0 0-.85.179 2.387 2.387 0 0 0-1.127 1.42s-.658.021-.91.038l-.944.064c.009-.16.033-.32.071-.477a2.28 2.28 0 0 1 .455-.862 2.446 2.446 0 0 1 1.414-.816 1.83 1.83 0 0 0 .131-.035 1.09 1.09 0 0 0-.619-.178 2.36 2.36 0 0 0-2.334 2.19l-.042.26s-.467.104-.682.143a7.762 7.762 0 0 0-1.137.287c.023-.457.138-.904.339-1.315.196-.384.47-.723.806-.994a2.82 2.82 0 0 1 .262-.199 1.481 1.481 0 0 0-.36-.049 1.719 1.719 0 0 0-1.59 1.103 4.627 4.627 0 0 0-.28 1.801c-.354.087-1.162.394-1.491.523a3.003 3.003 0 0 1 .013-1.333 2.1 2.1 0 0 1 .538-1.005c.075-.077.154-.149.237-.216-.022-.006-.092-.05-.418.022a1.724 1.724 0 0 0-1.221 1.182 7.307 7.307 0 0 0-.151 1.829c-.2.1-.851.393-.967.44a1.514 1.514 0 0 0-.175-.462.603.603 0 0 0-.499-.269.779.779 0 0 0-.336.082.432.432 0 0 0-.216.26.565.565 0 0 0 .034.438c.047.084.102.163.165.235.048.06.149.205.149.205-.212.06-.41.16-.585.295a.622.622 0 0 0-.2.812.526.526 0 0 0 .488.287c.333-.024.643-.179.862-.43 0 0 .23.344.264.397a.545.545 0 0 0 .47.242.628.628 0 0 0 .295-.072.665.665 0 0 0 .32-.579.898.898 0 0 0-.237-.548l-.052-.072.472-.248a15.307 15.307 0 0 1 2.361-1.078 18.719 18.719 0 0 1 4.034-.942 4.88 4.88 0 0 1 .854-.05c.353.022.702.1 1.032.23v-1.427h.568c.365-.433.86-.735 1.412-.862zm-1.975 5.279v2.078a7.33 7.33 0 0 0-.672-.04 15.286 15.286 0 0 0-5.408 1.325c-.77.336-1.515.726-2.232 1.164.254.136.453.355.565.62.118.408-.143.79-.683.805-.484.016-.609-.412-.76-.575-.045.024-.453.414-.593.492a.811.811 0 0 1-.395.11.601.601 0 0 1-.597-.45.58.58 0 0 1-.005-.252.727.727 0 0 1 .385-.485c.143-.07.278-.156.401-.258-.032-.137-.298-.36-.37-.55a.708.708 0 0 1 .222-.77.632.632 0 0 1 .718.02c.274.164.418.67.462.719.152-.104.609-.41.879-.602a3.393 3.393 0 0 1-.448-1.799c.144-.965 1.126-1.619 1.612-1.385-.394.41-.62.952-.633 1.52-.06.427.013.862.208 1.247 0 0 1.056-.42 1.445-.536a3.145 3.145 0 0 1-.06-2.106 1.95 1.95 0 0 1 1.742-1.055 2.543 2.543 0 0 0-1.024 2.83c.216-.05 1.432-.45 1.58-.495a2.97 2.97 0 0 1 .606-2.02 2.227 2.227 0 0 1 1.49-.906c.124-.006.249.01.368.046-.004.05-.004.05-.096.112l-.072.048c-.5.4-.935.876-1.288 1.41a2.29 2.29 0 0 0-.255 1.057l.005.046s.629-.113 1.114-.16c.484-.048.967-.058.967-.058a2.96 2.96 0 0 1 .287-.594c.15-.21.33-.397.535-.554v.001zm20.197 8.998a1.75 1.75 0 0 0-.97.749c-.378.585-.517 1.238-.291 1.252.152.01.41 0 .47 0 .268-.001.535.01.801.036a.255.255 0 0 0 .14-.071c.037-.052.07-.107.1-.165a3.252 3.252 0 0 1 1.149-1.616 1.24 1.24 0 0 1 .742-.252 1.262 1.262 0 0 1 1.065.464c.096.137-.445-.127-1.282.73-.262.272-.47.591-.613.941-.008.022.027.08.053.088.387.116 1.065.274 1.406.419a.168.168 0 0 0 .21-.068c.187-.289.431-.536.718-.728a1.879 1.879 0 0 1 1.04-.287l.072.009c.783.1.833.48.874.542.04.062-.172.057-.27.08a2.422 2.422 0 0 0-1.374.854c-.05.096.154.257.154.257a1.59 1.59 0 0 1 .801 1.652c-.013.117 0 .173-.105.173a1.158 1.158 0 0 1-.31-.233 9.595 9.595 0 0 0-1.097-.836 5.565 5.565 0 0 0-2.047-.8 9.59 9.59 0 0 0-1.688-.17 13.887 13.887 0 0 0-3.746.553 52.81 52.81 0 0 0-1.712.51l-.431.134.281-.246c.307-.291.595-.602.862-.93l.192-.248.328-.08 1.408-.31a.392.392 0 0 0 .287-.318A2.648 2.648 0 0 1 32 32.327a1.806 1.806 0 0 1 1.329-.842c.63-.044.886.17.78.222v.001zM23.985 42.313a1.043 1.043 0 0 1-.406-.737.705.705 0 0 1 .426-.655.995.995 0 0 1 .869.077c.316.221.33.444.443.772a.114.114 0 0 0 .04.019c.271-.137.751-.355 1.077-.537l.173-.096s.072-.022.044-.122a3.477 3.477 0 0 1-.164-1.07c.031-.402.164-.79.386-1.127.503-.862 1.46-.786 1.364-.704a2.85 2.85 0 0 0-.653 1.352c-.048.28-.046.566.007.845.018.125.03.278.106.32.077.044.382-.116.57-.187.238-.09.565-.13.784-.19.127-.035.09-.104.09-.13a3.856 3.856 0 0 1 .63-2.2 2.016 2.016 0 0 1 1.382-.783c.2-.02.49.072.4.131a3.097 3.097 0 0 0-.34.248 3.435 3.435 0 0 0-.769.868 2.608 2.608 0 0 0-.255 1.564c.434.001.866-.055 1.286-.167a.216.216 0 0 0 .132-.152c.156-.497.324-1.432.848-1.782.254-.212.571-.335.902-.35.244-.014.886.18.742.252-.395.17-.743.434-1.015.768a1.77 1.77 0 0 0-.368.913c-.041.186.164.237.164.237.352.023.703.067 1.05.131.104.02.181-.117.206-.159.155-.253.353-.477.585-.662.224-.216.517-.346.827-.368.65 0 .972.471.88.503a2.585 2.585 0 0 0-1.402.925c-.02.025-.08.056.017.143a3.034 3.034 0 0 1 1.081 1.916c0 .06.04.324-.052.365a6.386 6.386 0 0 0-1.441-1.28 4.975 4.975 0 0 0-2.408-.546c-1.02.008-2.032.16-3.008.452-1.088.33-2.13.792-3.105 1.378.156.11.275.266.34.446a.723.723 0 0 1-.222.876.621.621 0 0 1-.57.093c-.472-.065-.598-.545-.657-.696a.719.719 0 0 1-.33.374.7.7 0 0 1-1.026-.174.66.66 0 0 1 .108-.896l.232-.2v.002zm1.633 5.817a3.323 3.323 0 0 1-.21-.482 2.058 2.058 0 0 1-.126-1.098 1.06 1.06 0 0 1 .96-.846 1.077 1.077 0 0 0-.277.909c.029.326.128.641.292.924.04.053.067.032.085.023.261-.142.53-.27.805-.383a.058.058 0 0 0 .02-.045 2.37 2.37 0 0 1 .21-1.84 1.628 1.628 0 0 1 1.17-.82c.021 0 .321.01.34.121a2.347 2.347 0 0 0-.775.951 2.154 2.154 0 0 0-.08 1.206c0 .013.039.03.054.027.307-.084.605-.16.923-.227a.13.13 0 0 0 .06-.062c.117-.575.412-1.1.845-1.496a2.092 2.092 0 0 1 1.149-.482c.55-.02.622.17.682.244.04.05-.116-.018-.375.09-.315.158-.594.38-.817.653a1.62 1.62 0 0 0-.384.855c0 .02.006.061.018.063.318.048.63.123.934.226a.071.071 0 0 0 .053-.017c.174-.337.402-.643.676-.905.261-.233.596-.366.946-.376a.981.981 0 0 1 .603.187s.215.168.163.193a1.972 1.972 0 0 0-.96.605c-.374.435-.384.546-.407.646-.024.1-.016.144.092.216.587.379.658.697.689.902.034.23-.107.55-.295.31a2.02 2.02 0 0 0-.978-.688 4.831 4.831 0 0 0-1.704-.338 5.232 5.232 0 0 0-1.59.266 6.478 6.478 0 0 0-1.92.954c-.084.065-.17.128-.256.19a6.29 6.29 0 0 0-.52.432c-.071.071.052.112.108.143.676.3.693.75.516.956a.48.48 0 0 1-.58.083c-.511-.328-.415-.614-.64-.544-.156.048-.31.431-.43.567a.535.535 0 0 1-.734.099.59.59 0 0 1-.11-.812c.126-.12.26-.232.399-.337-.03-.02-.367-.236-.503-.351a.562.562 0 0 1 .031-.826.608.608 0 0 1 .855.139s.244.333.263.354c.02.022.044.018.072-.006.097-.083.61-.477.646-.502a.038.038 0 0 0 .016-.023.04.04 0 0 0-.004-.028zm3.127-19.015a.62.62 0 0 1-.231 0 .308.308 0 0 1-.192-.124.46.46 0 0 1-.101-.192c0-.046.042-.085.078-.114.117-.086.217-.193.293-.316a.827.827 0 0 0 .096-.367c0-.022-.046-.034-.062-.018-.079.076-.13.188-.221.247a.472.472 0 0 1-.288.081.28.28 0 0 1-.183-.089.587.587 0 0 1-.097-.195c-.022-.06.072-.105.135-.118a.907.907 0 0 0 .38-.115.437.437 0 0 0 .174-.19.625.625 0 0 0 .035-.197c0-.03.017-.049-.013-.04-.071.024-.12.066-.181.083a.455.455 0 0 1-.35-.021.9.9 0 0 1-.26-.301c-.015-.022 0-.068.024-.072.108-.022.204-.143.287-.287a.571.571 0 0 0 .046-.093c.016-.041.065-.084.072-.105a.906.906 0 0 0 .022-.26.32.32 0 0 0-.101-.192c-.015-.017-.072-.02-.086 0-.05.09-.02.206-.072.294a.886.886 0 0 1-.226.237c-.044.034-.107.08-.158.057a.321.321 0 0 1-.169-.215.51.51 0 0 1 .068-.317c.102-.2.222-.39.36-.567.101-.13.208-.215.3-.359.065-.095.114-.295.028-.327-.085-.031-.135.167-.211.21a3.416 3.416 0 0 0-.826.451 1.422 1.422 0 0 0-.248.52c-.038.101-.012.255-.055.354-.017.037-.095.071-.126.049a.735.735 0 0 1-.204-.324.423.423 0 0 1 .018-.256c.012-.033-.013-.064-.039-.05a.547.547 0 0 0-.247.295.701.701 0 0 0 .04.508c.142.236.298.463.467.68.122.207.28.426.389.624a.796.796 0 0 1 .128.564c-.046.205-.15.39-.302.536-.02.012-.062.034-.08.02a6.067 6.067 0 0 0-.495-.42 2.025 2.025 0 0 0-.687-.275 4.477 4.477 0 0 0-.913-.008c-.32.01-.639.057-.958.046a2.194 2.194 0 0 1-.767-.102.847.847 0 0 1-.436-.377 1.057 1.057 0 0 1-.097-.591c.013-.165.062-.325.143-.47a.747.747 0 0 1 .298-.305.667.667 0 0 1 .468-.064.798.798 0 0 1 .216.139c.064.052.124.11.178.174.007.01.05 0 .051-.011a1.293 1.293 0 0 0-.09-.634 2.735 2.735 0 0 0-.28-.44c-.01-.033.09-.03.126-.033a.746.746 0 0 1 .481.143.82.82 0 0 1 .237.25c.006.01.033 0 .033-.012a.988.988 0 0 0-.246-.714.823.823 0 0 0-.304-.267c-.072-.026.053-.082.117-.083a.846.846 0 0 1 .402.06.41.41 0 0 1 .123.088.584.584 0 0 0 .084.065c.023.014.048-.029.038-.055a.598.598 0 0 0-.09-.216 6.126 6.126 0 0 0-.718-.61 1.024 1.024 0 0 1-.143-.287c-.014-.04-.072-.077-.094-.133a.227.227 0 0 1 .017-.165c.066-.125.128-.147.266-.209.106-.034.216-.056.326-.067.034-.006.069.033.102.022.018-.006.028-.054-.025-.093a.784.784 0 0 0-.449-.144 1.337 1.337 0 0 0-.634.047c-.151.084-.32.133-.493.143a.684.684 0 0 1-.327-.064.266.266 0 0 1-.143-.181.714.714 0 0 1 .09-.374.474.474 0 0 1 .215-.185c.06-.03.1-.055.096-.096-.004-.042-.088-.023-.12-.012-.19.042-.372.114-.54.212a2.219 2.219 0 0 0-.328.375.21.21 0 0 1-.078.057c-.037.016-.072.006-.113.021-.136.052-.275.121-.406.183s-.237.167-.372.215c-.105.033-.214.05-.323.052h-.01c-.216-.02-.503-.018-.555.241a.122.122 0 0 0 .058.136.62.62 0 0 0 .12.058l.133.048c.031.007.06.024.081.047l.007.01.004.013v.025a.105.105 0 0 1-.093.066.514.514 0 0 1-.348-.045l-.024-.012a.115.115 0 0 0-.148.022c-.235.191-.479.37-.732.537a.322.322 0 0 0-.072.059.12.12 0 0 0-.027.055.182.182 0 0 0 0 .051c.01.058-.059.085-.104.099a.126.126 0 0 0-.094.115.398.398 0 0 0 .008.126.147.147 0 0 0 .08.11.149.149 0 0 0 .136-.002c.063-.024.126-.045.19-.063a.105.105 0 0 1 .104.016l.011.014.005.011v.012a.097.097 0 0 1-.01.054.95.95 0 0 1-.083.118c-.03.044-.053.107 0 .144a.226.226 0 0 0 .3-.015.52.52 0 0 0 .097-.143.244.244 0 0 1 .123-.125.886.886 0 0 1 .341-.072h.007a.413.413 0 0 1 .234.061.113.113 0 0 1 .049.054l.005.016v.035a.787.787 0 0 1-.098.225c-.022.05-.034.113-.056.176-.023.064-.058.128-.077.178-.018.05-.029.055-.071.092-.102.085-.245.171-.344.26a2.921 2.921 0 0 0-.466.567.764.764 0 0 0-.087.212v.006c-.037.182-.072.401-.288.28a5.503 5.503 0 0 1-.594-.378.821.821 0 0 1-.18-.193c-.188-.274-.42-.031-.544.168a8.883 8.883 0 0 1-.646.883.59.59 0 0 0-.09.15.703.703 0 0 1-.131.207.452.452 0 0 0-.093.3.828.828 0 0 1-.164.518.476.476 0 0 0-.132.316c0 .103 0 .205.006.307.005.076.034.144.122.139a.226.226 0 0 0 .058-.017 1.73 1.73 0 0 0 .438-.245.505.505 0 0 0 .054-.051.139.139 0 0 0 .028-.16.17.17 0 0 0-.028-.04.372.372 0 0 0-.03-.026.187.187 0 0 1-.07-.093.3.3 0 0 1 .002-.13c.01-.045.02-.09.025-.136a.203.203 0 0 1 .072-.14c.072-.06.144-.115.215-.174a.306.306 0 0 0 .089-.354.232.232 0 0 1-.018-.11.33.33 0 0 1 .072-.152c.047-.069.094-.136.143-.203a.498.498 0 0 1 .301-.226.54.54 0 0 1 .437.143c.126.16.212.349.25.55.046.163.113.319.2.465a.226.226 0 0 0 .35.066l.021-.013a.182.182 0 0 1 .023-.01.105.105 0 0 1 .119.05c.06.072.124.14.194.202.082.05.012.113-.056.112-.056 0-.112 0-.168-.003a.349.349 0 0 0-.144.024 3.484 3.484 0 0 1-1.033.16.393.393 0 0 0-.068.006.136.136 0 0 0-.097.072 2.677 2.677 0 0 0-.053.138.342.342 0 0 0-.003.246c.141.478.177.98.105 1.474a.615.615 0 0 0 .118.503c.043.05.1.087.163.104a.207.207 0 0 1 .072.038.278.278 0 0 1 .066.187.438.438 0 0 0 .112.26c.088.11.198.201.322.267.014.007.028.012.042.017a.134.134 0 0 0 .177-.068c.075-.16.111-.334.106-.51a.183.183 0 0 0-.144-.17.11.11 0 0 0-.024-.007.115.115 0 0 0-.081.029l-.009.005a.17.17 0 0 1-.045.017h-.047a.15.15 0 0 1-.023-.006.167.167 0 0 1-.021-.01.265.265 0 0 1-.097-.121.476.476 0 0 1-.018-.31c.008-.03.014-.06.02-.09a.366.366 0 0 0 .005-.144.45.45 0 0 0-.038-.143c-.036-.08-.047-.11-.114-.133l-.022-.009a.31.31 0 0 1-.084-.046.104.104 0 0 1-.012-.014.088.088 0 0 1-.008-.072 2.83 2.83 0 0 0 .024-.7c0-.077-.016-.157.048-.216.161-.135.431-.027.6.036.22.078.446.136.676.175h.006c.375.036.75-.066 1.055-.288.028-.024.032-.031.064-.012.122.072.198.157.32.234.277.182.579.32.897.411.427.041.858.037 1.285-.011.107.007.214.03.315.067a.055.055 0 0 1 .038.057c-.01.157-.072.306-.072.463a.55.55 0 0 0 .09.238c.037.072.062.172.107.24l.044.083a.852.852 0 0 1 .015 1.056 3.98 3.98 0 0 1-.52.425 1.178 1.178 0 0 1-.6.233.612.612 0 0 0-.39.165c-.12.126-.258.235-.41.322a.215.215 0 0 0-.13.139 2.527 2.527 0 0 0-.162.545c-.023.108.056.143.15.13.16-.023.316-.065.466-.125a.152.152 0 0 0 .087-.222l-.05-.136a.162.162 0 0 1-.011-.041v-.033a.139.139 0 0 1 .024-.044.373.373 0 0 1 .094-.081.215.215 0 0 1 .148-.038c.034.006.068.015.1.024a.431.431 0 0 0 .514-.185l.04-.065a.55.55 0 0 1 .143-.161 6.293 6.293 0 0 1 1.3-.64.127.127 0 0 0 .088-.079.414.414 0 0 0-.009-.168 2.696 2.696 0 0 1-.008-.485c.004-.112.044-.313.19-.317a.208.208 0 0 1 .143.091c.145.186.341.326.564.404.067.023.133.047.197.076a.565.565 0 0 1 .326.427.375.375 0 0 1-.065.294 7.612 7.612 0 0 0-.439.635.944.944 0 0 1-.273.287c-.17.114-.332.238-.487.371a.965.965 0 0 0-.306.323 7.082 7.082 0 0 0-.225.675c-.037.132.044.162.16.136.175-.044.342-.111.498-.2a.249.249 0 0 0 .064-.05.144.144 0 0 0 .032-.096.315.315 0 0 0-.072-.164.183.183 0 0 1-.02-.224.177.177 0 0 1 .102-.071c.125-.04.25-.072.378-.106.166-.023.32-.1.437-.22a.244.244 0 0 0 .048-.097v-.01l.007-.03a2.05 2.05 0 0 1 .962-1.212.202.202 0 0 0 .1-.16.343.343 0 0 0-.021-.19l-.352-.546a1.04 1.04 0 0 1-.194-.48 1.19 1.19 0 0 1 .134-.526 1.48 1.48 0 0 0 .087-.144c.061-.137.182-.184.276-.308.097-.12.184-.246.262-.379.079-.173.142-.353.189-.538.045-.14-.026-.295-.012-.44a.306.306 0 0 1 .067-.148.52.52 0 0 1 .245-.19.526.526 0 0 1 .31.02c.184.053.306.124.493.168.097.02.199.013.293-.018a.581.581 0 0 0 .269-.156c.028-.018.032-.074.003-.07v-.002zm-6.427-2.979a.403.403 0 0 1-.196.344.412.412 0 0 1-.19.04c-.073 0-.098-.11-.104-.273v-.184c0-.078.003-.15.01-.226.004-.053.004-.108.006-.16v-.187c-.007-.134 0-.27-.02-.403a2.816 2.816 0 0 0-.116-.48 2.966 2.966 0 0 0-.106-.283c-.018-.044-.054-.094-.075-.137a.369.369 0 0 0-.08-.106c-.05-.044-.118-.066-.161-.116-.016-.018 0-.043.02-.056a.502.502 0 0 1 .574.072 1.171 1.171 0 0 1 .431.833c.066.439.068.883.007 1.322zM2.784 35.264h13.07a7.229 7.229 0 0 1-1.925-4.823v-.207H1.994a22.39 22.39 0 0 0 .787 5.03h.003zM21.68 41.57H5.428a37.39 37.39 0 0 0 1.399 2.32c.627.95 1.317 1.858 2.064 2.718h12.787l.002-5.038zm20.958-22.543H30.645v4.427h11.914c.019-1.443.048-2.941.076-4.426l.003-.001zm.135-7.455a51.726 51.726 0 0 0-6.61-2.17 61.132 61.132 0 0 0-9.388-1.523 56.22 56.22 0 0 0-4.365-.202v4.925h20.345c.005-.35.01-.694.018-1.029v-.001zm-12.869 7.3l-15.323-.006c-.03 0-.035.013-.035.043l.018 11.366a7.077 7.077 0 0 0 2.542 5.314 8.075 8.075 0 0 0 5.191 1.977 7.971 7.971 0 0 0 4.002-1.13 7.647 7.647 0 0 0 3.312-3.966 5.41 5.41 0 0 0 .328-1.757l.006-11.811a.036.036 0 0 0-.04-.03zm-.321 11.748a5.242 5.242 0 0 1-.313 1.69 7.34 7.34 0 0 1-3.16 3.813 7.55 7.55 0 0 1-3.816 1.087 7.663 7.663 0 0 1-4.95-1.9 6.827 6.827 0 0 1-2.424-5.115l-.016-10.927c0-.03.004-.042.033-.042l14.611.004a.035.035 0 0 1 .035.02.036.036 0 0 1 .003.013l-.003 11.357zm-4.43 7.026a7.598 7.598 0 0 1-1.59.418c.014.045.03.089.05.132a.299.299 0 0 0 .287.196c.176.026.306-.096.437-.387.019-.023.094-.056.111-.028.138.226.454.431.67.318a.36.36 0 0 0 .105-.515l-.07-.134z" fill="#000"/><defs><linearGradient id="paint0_linear" x1=".708" y1="28.501" x2="43.714" y2="28.501" gradientUnits="userSpaceOnUse"><stop stop-color="#E1BE78"/><stop offset="1" stop-color="#E3AB36"/></linearGradient><linearGradient id="paint1_linear" x1="-2.503" y1="10.55" x2="42.735" y2="36.668" gradientUnits="userSpaceOnUse"><stop stop-color="#E1BE78"/><stop offset=".34" stop-color="#FFFAD1"/><stop offset=".75" stop-color="#C69632"/><stop offset=".995" stop-color="#FCDC99"/></linearGradient><linearGradient id="paint2_linear" x1="2.301" y1="6.171" x2="41.926" y2="6.171" gradientUnits="userSpaceOnUse"><stop stop-color="#FFE3A8"/><stop offset="1" stop-color="#D2A249"/></linearGradient></defs></svg>